<mxfile host="app.diagrams.net" modified="2023-11-12T09:41:44.980Z" agent="Mozilla/5.0 (Windows NT 10.0; Win64; x64) AppleWebKit/537.36 (KHTML, like Gecko) Chrome/119.0.0.0 Safari/537.36" etag="m6F9qvXUDQ6az03PevQT" version="22.1.0" type="device">
  <diagram name="Page-1" id="o2gniuQvktMx3vP2k-OH">
    <mxGraphModel dx="1877" dy="530" grid="0" gridSize="10" guides="1" tooltips="1" connect="1" arrows="1" fold="1" page="1" pageScale="1" pageWidth="827" pageHeight="1169" background="#FFFFFF" math="0" shadow="0">
      <root>
        <mxCell id="0" />
        <mxCell id="1" parent="0" />
        <mxCell id="ea3nt5I8Ip7ldwUN47iV-6" value="" style="shape=umlActor;verticalLabelPosition=top;verticalAlign=bottom;html=1;outlineConnect=0;labelPosition=center;align=center;" parent="1" vertex="1">
          <mxGeometry x="40" y="195" width="30" height="60" as="geometry" />
        </mxCell>
        <mxCell id="ea3nt5I8Ip7ldwUN47iV-9" value="" style="endArrow=none;html=1;rounded=0;" parent="1" target="ea3nt5I8Ip7ldwUN47iV-15" edge="1">
          <mxGeometry width="50" height="50" relative="1" as="geometry">
            <mxPoint x="80" y="210" as="sourcePoint" />
            <mxPoint x="160" y="160" as="targetPoint" />
          </mxGeometry>
        </mxCell>
        <mxCell id="ea3nt5I8Ip7ldwUN47iV-12" value="" style="endArrow=none;html=1;rounded=0;" parent="1" target="ea3nt5I8Ip7ldwUN47iV-16" edge="1">
          <mxGeometry width="50" height="50" relative="1" as="geometry">
            <mxPoint x="80" y="230" as="sourcePoint" />
            <mxPoint x="160" y="230" as="targetPoint" />
          </mxGeometry>
        </mxCell>
        <mxCell id="ea3nt5I8Ip7ldwUN47iV-13" value="" style="endArrow=none;html=1;rounded=0;" parent="1" target="ea3nt5I8Ip7ldwUN47iV-17" edge="1">
          <mxGeometry width="50" height="50" relative="1" as="geometry">
            <mxPoint x="80" y="250" as="sourcePoint" />
            <mxPoint x="160" y="290" as="targetPoint" />
          </mxGeometry>
        </mxCell>
        <mxCell id="ea3nt5I8Ip7ldwUN47iV-15" value="request_booking" style="ellipse;whiteSpace=wrap;html=1;" parent="1" vertex="1">
          <mxGeometry x="140" y="120" width="140" height="50" as="geometry" />
        </mxCell>
        <mxCell id="ea3nt5I8Ip7ldwUN47iV-16" value="check_booking_status" style="ellipse;whiteSpace=wrap;html=1;" parent="1" vertex="1">
          <mxGeometry x="170" y="195" width="160" height="55" as="geometry" />
        </mxCell>
        <mxCell id="ea3nt5I8Ip7ldwUN47iV-17" value="cancel_booking" style="ellipse;whiteSpace=wrap;html=1;" parent="1" vertex="1">
          <mxGeometry x="161" y="280" width="140" height="50" as="geometry" />
        </mxCell>
        <mxCell id="ea3nt5I8Ip7ldwUN47iV-18" value="VH incharge" style="shape=umlActor;verticalLabelPosition=bottom;verticalAlign=top;html=1;outlineConnect=0;" parent="1" vertex="1">
          <mxGeometry x="750" y="170" width="30" height="60" as="geometry" />
        </mxCell>
        <mxCell id="ea3nt5I8Ip7ldwUN47iV-21" value="" style="endArrow=none;html=1;rounded=0;entryX=1;entryY=0.5;entryDx=0;entryDy=0;" parent="1" source="ea3nt5I8Ip7ldwUN47iV-18" target="ea3nt5I8Ip7ldwUN47iV-29" edge="1">
          <mxGeometry width="50" height="50" relative="1" as="geometry">
            <mxPoint x="740" y="170" as="sourcePoint" />
            <mxPoint x="539" y="278" as="targetPoint" />
          </mxGeometry>
        </mxCell>
        <mxCell id="ea3nt5I8Ip7ldwUN47iV-25" value="Intender" style="text;html=1;align=center;verticalAlign=middle;resizable=0;points=[];autosize=1;strokeColor=none;fillColor=none;fontSize=12;fontFamily=Helvetica;fontColor=default;" parent="1" vertex="1">
          <mxGeometry x="20" y="250" width="70" height="30" as="geometry" />
        </mxCell>
        <mxCell id="ea3nt5I8Ip7ldwUN47iV-28" value="view_bookings" style="ellipse;whiteSpace=wrap;html=1;" parent="1" vertex="1">
          <mxGeometry x="561" y="72" width="140" height="40" as="geometry" />
        </mxCell>
        <mxCell id="ea3nt5I8Ip7ldwUN47iV-29" value="approve/reject_booking_&lt;br&gt;request" style="ellipse;whiteSpace=wrap;html=1;" parent="1" vertex="1">
          <mxGeometry x="475" y="230" width="183" height="40" as="geometry" />
        </mxCell>
        <mxCell id="ea3nt5I8Ip7ldwUN47iV-30" value="cancel_booking" style="ellipse;whiteSpace=wrap;html=1;" parent="1" vertex="1">
          <mxGeometry x="327" y="70" width="140" height="40" as="geometry" />
        </mxCell>
        <mxCell id="ea3nt5I8Ip7ldwUN47iV-31" value="manage_inventory" style="ellipse;whiteSpace=wrap;html=1;" parent="1" vertex="1">
          <mxGeometry x="485" y="632" width="147" height="32" as="geometry" />
        </mxCell>
        <mxCell id="ea3nt5I8Ip7ldwUN47iV-37" value="VH &lt;br&gt;Caretaker" style="shape=umlActor;verticalLabelPosition=bottom;verticalAlign=top;html=1;outlineConnect=0;" parent="1" vertex="1">
          <mxGeometry x="750" y="520" width="30" height="60" as="geometry" />
        </mxCell>
        <mxCell id="ea3nt5I8Ip7ldwUN47iV-41" value="book_meal" style="ellipse;whiteSpace=wrap;html=1;" parent="1" vertex="1">
          <mxGeometry x="538" y="565" width="105" height="39" as="geometry" />
        </mxCell>
        <mxCell id="ea3nt5I8Ip7ldwUN47iV-42" value="update_inventory" style="ellipse;whiteSpace=wrap;html=1;" parent="1" vertex="1">
          <mxGeometry x="234" y="628" width="140" height="40" as="geometry" />
        </mxCell>
        <mxCell id="ea3nt5I8Ip7ldwUN47iV-44" value="" style="endArrow=none;html=1;rounded=0;exitX=0.643;exitY=0;exitDx=0;exitDy=0;exitPerimeter=0;" parent="1" source="ea3nt5I8Ip7ldwUN47iV-31" target="ea3nt5I8Ip7ldwUN47iV-37" edge="1">
          <mxGeometry width="50" height="50" relative="1" as="geometry">
            <mxPoint x="650" y="470" as="sourcePoint" />
            <mxPoint x="700" y="420" as="targetPoint" />
          </mxGeometry>
        </mxCell>
        <mxCell id="ea3nt5I8Ip7ldwUN47iV-47" value="manage_check_in" style="ellipse;whiteSpace=wrap;html=1;" parent="1" vertex="1">
          <mxGeometry x="492" y="463" width="140" height="47" as="geometry" />
        </mxCell>
        <mxCell id="ea3nt5I8Ip7ldwUN47iV-48" value="manage_check_out" style="ellipse;whiteSpace=wrap;html=1;" parent="1" vertex="1">
          <mxGeometry x="431" y="510" width="148" height="49" as="geometry" />
        </mxCell>
        <mxCell id="ea3nt5I8Ip7ldwUN47iV-49" value="cancel_booking" style="ellipse;whiteSpace=wrap;html=1;" parent="1" vertex="1">
          <mxGeometry x="286" y="565" width="110" height="40" as="geometry" />
        </mxCell>
        <mxCell id="ea3nt5I8Ip7ldwUN47iV-50" value="" style="endArrow=none;html=1;rounded=0;exitX=1;exitY=0.5;exitDx=0;exitDy=0;" parent="1" source="ea3nt5I8Ip7ldwUN47iV-41" target="ea3nt5I8Ip7ldwUN47iV-37" edge="1">
          <mxGeometry width="50" height="50" relative="1" as="geometry">
            <mxPoint x="500" y="400" as="sourcePoint" />
            <mxPoint x="740" y="440" as="targetPoint" />
          </mxGeometry>
        </mxCell>
        <mxCell id="ea3nt5I8Ip7ldwUN47iV-51" value="&amp;lt;&amp;lt;extend&amp;gt;&amp;gt;" style="html=1;verticalAlign=bottom;labelBackgroundColor=none;endArrow=open;endFill=0;dashed=1;rounded=0;entryX=0;entryY=0.5;entryDx=0;entryDy=0;exitX=1;exitY=0.529;exitDx=0;exitDy=0;exitPerimeter=0;" parent="1" source="ea3nt5I8Ip7ldwUN47iV-49" target="ea3nt5I8Ip7ldwUN47iV-41" edge="1">
          <mxGeometry width="160" relative="1" as="geometry">
            <mxPoint x="450" y="370" as="sourcePoint" />
            <mxPoint x="610" y="370" as="targetPoint" />
          </mxGeometry>
        </mxCell>
        <mxCell id="ea3nt5I8Ip7ldwUN47iV-52" value="Manage_bookings" style="ellipse;whiteSpace=wrap;html=1;" parent="1" vertex="1">
          <mxGeometry x="617" y="426" width="131" height="41" as="geometry" />
        </mxCell>
        <mxCell id="ea3nt5I8Ip7ldwUN47iV-53" value="approve/reject_booking_ request" style="ellipse;whiteSpace=wrap;html=1;" parent="1" vertex="1">
          <mxGeometry x="343" y="424.5" width="159" height="44" as="geometry" />
        </mxCell>
        <mxCell id="ea3nt5I8Ip7ldwUN47iV-54" value="cancel_booking" style="ellipse;whiteSpace=wrap;html=1;" parent="1" vertex="1">
          <mxGeometry x="345" y="365" width="140" height="40" as="geometry" />
        </mxCell>
        <mxCell id="ea3nt5I8Ip7ldwUN47iV-55" value="view_bookings&amp;nbsp;" style="ellipse;whiteSpace=wrap;html=1;" parent="1" vertex="1">
          <mxGeometry x="348" y="307" width="140" height="40" as="geometry" />
        </mxCell>
        <mxCell id="ea3nt5I8Ip7ldwUN47iV-56" value="&amp;lt;&amp;lt;extend&amp;gt;&amp;gt;" style="html=1;verticalAlign=bottom;labelBackgroundColor=none;endArrow=open;endFill=0;dashed=1;rounded=0;entryX=0;entryY=0.5;entryDx=0;entryDy=0;exitX=1;exitY=0.5;exitDx=0;exitDy=0;" parent="1" source="ea3nt5I8Ip7ldwUN47iV-30" target="ea3nt5I8Ip7ldwUN47iV-28" edge="1">
          <mxGeometry width="160" relative="1" as="geometry">
            <mxPoint x="280" y="60" as="sourcePoint" />
            <mxPoint x="440" y="100" as="targetPoint" />
          </mxGeometry>
        </mxCell>
        <mxCell id="ea3nt5I8Ip7ldwUN47iV-57" value="" style="endArrow=none;html=1;rounded=0;" parent="1" source="ea3nt5I8Ip7ldwUN47iV-52" target="ea3nt5I8Ip7ldwUN47iV-37" edge="1">
          <mxGeometry width="50" height="50" relative="1" as="geometry">
            <mxPoint x="450" y="420" as="sourcePoint" />
            <mxPoint x="500" y="370" as="targetPoint" />
          </mxGeometry>
        </mxCell>
        <mxCell id="ea3nt5I8Ip7ldwUN47iV-59" value="&amp;lt;&amp;lt;extend&amp;gt;&amp;gt;" style="html=1;verticalAlign=bottom;labelBackgroundColor=none;endArrow=open;endFill=0;dashed=1;rounded=0;exitX=1;exitY=0.5;exitDx=0;exitDy=0;entryX=0.344;entryY=0;entryDx=0;entryDy=0;entryPerimeter=0;" parent="1" source="ea3nt5I8Ip7ldwUN47iV-55" target="ea3nt5I8Ip7ldwUN47iV-52" edge="1">
          <mxGeometry width="160" relative="1" as="geometry">
            <mxPoint x="610" y="400" as="sourcePoint" />
            <mxPoint x="623" y="355" as="targetPoint" />
          </mxGeometry>
        </mxCell>
        <mxCell id="ea3nt5I8Ip7ldwUN47iV-60" value="&amp;lt;&amp;lt;extend&amp;gt;&amp;gt;" style="html=1;verticalAlign=bottom;labelBackgroundColor=none;endArrow=open;endFill=0;dashed=1;rounded=0;exitX=0.971;exitY=0.34;exitDx=0;exitDy=0;exitPerimeter=0;entryX=0.215;entryY=0.059;entryDx=0;entryDy=0;entryPerimeter=0;" parent="1" source="ea3nt5I8Ip7ldwUN47iV-54" target="ea3nt5I8Ip7ldwUN47iV-52" edge="1">
          <mxGeometry width="160" relative="1" as="geometry">
            <mxPoint x="400" y="350" as="sourcePoint" />
            <mxPoint x="560" y="350" as="targetPoint" />
          </mxGeometry>
        </mxCell>
        <mxCell id="ea3nt5I8Ip7ldwUN47iV-61" value="" style="endArrow=none;html=1;rounded=0;exitX=1;exitY=0.5;exitDx=0;exitDy=0;" parent="1" source="ea3nt5I8Ip7ldwUN47iV-47" target="ea3nt5I8Ip7ldwUN47iV-37" edge="1">
          <mxGeometry width="50" height="50" relative="1" as="geometry">
            <mxPoint x="454" y="683" as="sourcePoint" />
            <mxPoint x="732" y="540" as="targetPoint" />
          </mxGeometry>
        </mxCell>
        <mxCell id="ea3nt5I8Ip7ldwUN47iV-63" value="" style="endArrow=none;html=1;rounded=0;exitX=1;exitY=0.5;exitDx=0;exitDy=0;" parent="1" source="ea3nt5I8Ip7ldwUN47iV-48" edge="1">
          <mxGeometry width="50" height="50" relative="1" as="geometry">
            <mxPoint x="364" y="526" as="sourcePoint" />
            <mxPoint x="748" y="553" as="targetPoint" />
          </mxGeometry>
        </mxCell>
        <mxCell id="ea3nt5I8Ip7ldwUN47iV-64" value="&amp;lt;&amp;lt;extend&amp;gt;&amp;gt;" style="html=1;verticalAlign=bottom;labelBackgroundColor=none;endArrow=open;endFill=0;dashed=1;rounded=0;entryX=0;entryY=0.5;entryDx=0;entryDy=0;exitX=1;exitY=0.5;exitDx=0;exitDy=0;" parent="1" source="ea3nt5I8Ip7ldwUN47iV-65" target="ea3nt5I8Ip7ldwUN47iV-48" edge="1">
          <mxGeometry width="160" relative="1" as="geometry">
            <mxPoint x="328" y="499" as="sourcePoint" />
            <mxPoint x="273" y="532" as="targetPoint" />
          </mxGeometry>
        </mxCell>
        <mxCell id="ea3nt5I8Ip7ldwUN47iV-65" value="handle_payment" style="ellipse;whiteSpace=wrap;html=1;" parent="1" vertex="1">
          <mxGeometry x="226" y="513" width="112" height="43" as="geometry" />
        </mxCell>
        <mxCell id="ea3nt5I8Ip7ldwUN47iV-67" value="" style="endArrow=none;html=1;rounded=0;exitX=1;exitY=0.5;exitDx=0;exitDy=0;" parent="1" source="ea3nt5I8Ip7ldwUN47iV-28" target="ea3nt5I8Ip7ldwUN47iV-18" edge="1">
          <mxGeometry width="50" height="50" relative="1" as="geometry">
            <mxPoint x="453" y="219" as="sourcePoint" />
            <mxPoint x="503" y="169" as="targetPoint" />
          </mxGeometry>
        </mxCell>
        <mxCell id="ea3nt5I8Ip7ldwUN47iV-68" value="&amp;lt;&amp;lt;extend&amp;gt;&amp;gt;" style="html=1;verticalAlign=bottom;labelBackgroundColor=none;endArrow=open;endFill=0;dashed=1;rounded=0;entryX=0;entryY=0.5;entryDx=0;entryDy=0;exitX=1;exitY=0.5;exitDx=0;exitDy=0;" parent="1" source="ea3nt5I8Ip7ldwUN47iV-42" target="ea3nt5I8Ip7ldwUN47iV-31" edge="1">
          <mxGeometry width="160" relative="1" as="geometry">
            <mxPoint x="407" y="686" as="sourcePoint" />
            <mxPoint x="567" y="686" as="targetPoint" />
          </mxGeometry>
        </mxCell>
        <mxCell id="ea3nt5I8Ip7ldwUN47iV-69" value="book_rooms_offline" style="ellipse;whiteSpace=wrap;html=1;" parent="1" vertex="1">
          <mxGeometry x="467" y="675" width="150" height="48" as="geometry" />
        </mxCell>
        <mxCell id="ea3nt5I8Ip7ldwUN47iV-70" value="" style="endArrow=none;html=1;rounded=0;exitX=1;exitY=0.5;exitDx=0;exitDy=0;" parent="1" source="ea3nt5I8Ip7ldwUN47iV-69" target="ea3nt5I8Ip7ldwUN47iV-37" edge="1">
          <mxGeometry width="50" height="50" relative="1" as="geometry">
            <mxPoint x="398" y="479" as="sourcePoint" />
            <mxPoint x="448" y="429" as="targetPoint" />
          </mxGeometry>
        </mxCell>
        <mxCell id="Dr3gtSxPXgM3pEe4yAD6-1" value="&amp;lt;&amp;lt;extend&amp;gt;&amp;gt;" style="html=1;verticalAlign=bottom;labelBackgroundColor=none;endArrow=open;endFill=0;dashed=1;rounded=0;exitX=1;exitY=0.5;exitDx=0;exitDy=0;entryX=0;entryY=0.5;entryDx=0;entryDy=0;entryPerimeter=0;" parent="1" source="ea3nt5I8Ip7ldwUN47iV-53" target="ea3nt5I8Ip7ldwUN47iV-52" edge="1">
          <mxGeometry width="160" relative="1" as="geometry">
            <mxPoint x="460" y="443.5" as="sourcePoint" />
            <mxPoint x="620" y="443.5" as="targetPoint" />
          </mxGeometry>
        </mxCell>
        <mxCell id="Dr3gtSxPXgM3pEe4yAD6-2" value="generate_report" style="ellipse;whiteSpace=wrap;html=1;" parent="1" vertex="1">
          <mxGeometry x="538" y="152" width="140" height="39" as="geometry" />
        </mxCell>
        <mxCell id="Dr3gtSxPXgM3pEe4yAD6-4" value="generate_report" style="ellipse;whiteSpace=wrap;html=1;" parent="1" vertex="1">
          <mxGeometry x="525" y="729" width="120" height="37" as="geometry" />
        </mxCell>
        <mxCell id="Dr3gtSxPXgM3pEe4yAD6-6" value="" style="endArrow=none;html=1;rounded=0;exitX=1;exitY=0.5;exitDx=0;exitDy=0;" parent="1" source="Dr3gtSxPXgM3pEe4yAD6-2" target="ea3nt5I8Ip7ldwUN47iV-18" edge="1">
          <mxGeometry width="50" height="50" relative="1" as="geometry">
            <mxPoint x="387" y="307" as="sourcePoint" />
            <mxPoint x="437" y="257" as="targetPoint" />
          </mxGeometry>
        </mxCell>
        <mxCell id="Dr3gtSxPXgM3pEe4yAD6-7" value="" style="endArrow=none;html=1;rounded=0;exitX=1;exitY=0.189;exitDx=0;exitDy=0;exitPerimeter=0;" parent="1" source="Dr3gtSxPXgM3pEe4yAD6-4" target="ea3nt5I8Ip7ldwUN47iV-37" edge="1">
          <mxGeometry width="50" height="50" relative="1" as="geometry">
            <mxPoint x="387" y="607" as="sourcePoint" />
            <mxPoint x="437" y="557" as="targetPoint" />
          </mxGeometry>
        </mxCell>
        <mxCell id="ngBmibzNWCNQhMU-bTbV-1" value="student" style="shape=umlActor;verticalLabelPosition=bottom;verticalAlign=top;html=1;outlineConnect=0;" vertex="1" parent="1">
          <mxGeometry x="-70" y="345" width="30" height="60" as="geometry" />
        </mxCell>
        <mxCell id="ngBmibzNWCNQhMU-bTbV-2" value="employee" style="shape=umlActor;verticalLabelPosition=bottom;verticalAlign=top;html=1;outlineConnect=0;" vertex="1" parent="1">
          <mxGeometry x="140" y="338" width="30" height="60" as="geometry" />
        </mxCell>
        <mxCell id="ngBmibzNWCNQhMU-bTbV-3" value="" style="endArrow=classic;html=1;rounded=0;" edge="1" parent="1" source="ngBmibzNWCNQhMU-bTbV-1" target="ea3nt5I8Ip7ldwUN47iV-6">
          <mxGeometry width="50" height="50" relative="1" as="geometry">
            <mxPoint x="387" y="369" as="sourcePoint" />
            <mxPoint x="437" y="319" as="targetPoint" />
          </mxGeometry>
        </mxCell>
        <mxCell id="ngBmibzNWCNQhMU-bTbV-4" value="" style="endArrow=classic;html=1;rounded=0;" edge="1" parent="1" source="ngBmibzNWCNQhMU-bTbV-2" target="ea3nt5I8Ip7ldwUN47iV-6">
          <mxGeometry width="50" height="50" relative="1" as="geometry">
            <mxPoint x="387" y="369" as="sourcePoint" />
            <mxPoint x="437" y="319" as="targetPoint" />
          </mxGeometry>
        </mxCell>
      </root>
    </mxGraphModel>
  </diagram>
</mxfile>
